<svg width="26" height="20" viewBox="0 0 26 20" fill="none" xmlns="http://www.w3.org/2000/svg">
<path d="M14.7266 3.41724H13.6221V4.92504H14.0253H24.3648H24.7686V3.41724H23.6641H14.7266Z" fill="#EDEBEB"/>
<path d="M19.605 9.29886C19.2384 9.29886 18.834 9.49645 18.5233 9.82739C18.1036 10.2745 17.9598 10.868 18.1441 11.2482C18.2519 11.0056 18.3969 10.7606 18.4921 10.6431C18.6011 10.5088 18.8204 10.3455 19.1183 10.1293C19.2463 10.0365 19.3913 9.93124 19.4344 9.88828C19.5015 9.82104 19.557 9.6687 19.5731 9.60553C19.608 9.46994 19.7457 9.38762 19.8814 9.42216C20.0171 9.45648 20.0994 9.59375 20.0655 9.72943C20.0571 9.76295 19.9782 10.0625 19.7934 10.2474C19.7254 10.3153 19.606 10.403 19.4164 10.5405C19.2354 10.6719 18.9618 10.8701 18.8865 10.963C18.774 11.1017 18.6258 11.3938 18.5531 11.587C18.6249 11.6072 18.7024 11.6177 18.7856 11.6177C19.1522 11.6177 19.5564 11.42 19.8671 11.0892C20.1216 10.8181 20.2827 10.4938 20.3202 10.1759C20.3547 9.8867 20.2808 9.64006 20.1119 9.48177C19.9512 9.3306 19.7475 9.29886 19.605 9.29886Z" fill="#EDEBEB"/>
<path d="M14.0516 8.36839L14.5986 12.5482H23.7915L24.3389 8.36839H14.0516ZM20.8249 10.2357C20.7741 10.6606 20.5659 11.0873 20.2373 11.4366C19.8326 11.8682 19.2899 12.1257 18.7856 12.1257C18.5434 12.1257 18.3149 12.0652 18.125 11.9514C18.1183 11.9474 18.1128 11.9427 18.1061 11.9387C18.1051 11.9381 18.1041 11.9377 18.1036 11.9372C18.0421 11.8981 17.9838 11.8545 17.931 11.8051C17.3566 11.2653 17.4562 10.2223 18.1534 9.47974C18.5582 9.0481 19.101 8.79079 19.6052 8.79079C19.9408 8.79079 20.2365 8.9019 20.4598 9.11122C20.7487 9.38305 20.8788 9.78214 20.8249 10.2357Z" fill="#677077"/>
<path d="M23.7087 7.86057L24.0703 5.43282H14.3203L14.6823 7.86057H23.7087Z" fill="#CEACA4"/>
<path d="M22.7033 1.44591H15.6874L15.1013 2.90942H23.2894L22.7033 1.44591Z" fill="#EDEBEB"/>
<path d="M15.7687 16.1694V16.1699L15.8154 16.4228C15.9083 16.6661 16.1434 16.8276 16.404 16.8276H21.9863C22.2484 16.8276 22.4834 16.665 22.5759 16.4218L22.6211 16.174C22.6216 16.171 22.6222 16.1685 22.6231 16.1653L23.1848 13.0561H15.2059L15.7687 16.1694Z" fill="#CEACA4"/>
<path d="M20.4598 9.11128C20.2364 8.90211 19.9408 8.79085 19.6052 8.79085C19.1009 8.79085 18.5581 9.04816 18.1533 9.4798C17.4562 10.2223 17.3566 11.2653 17.931 11.8052C17.9837 11.8546 18.0421 11.8981 18.1035 11.9373C18.104 11.9378 18.105 11.9383 18.1061 11.9388C18.1128 11.9427 18.1183 11.9474 18.1248 11.9515C18.3148 12.0651 18.5433 12.1258 18.7856 12.1258C19.2899 12.1258 19.8327 11.8683 20.2373 11.4367C20.566 11.0872 20.7741 10.6607 20.8249 10.2358C20.8788 9.78215 20.7487 9.38306 20.4598 9.11128ZM20.3206 10.1758C20.2825 10.4937 20.1216 10.8181 19.8672 11.0893C19.5569 11.4205 19.1521 11.6179 18.7856 11.6179C18.7027 11.6179 18.6251 11.6072 18.5535 11.5869C18.6261 11.394 18.7744 11.1015 18.8867 10.9629C18.9618 10.8699 19.2355 10.6719 19.4168 10.5405C19.6062 10.4028 19.7255 10.3154 19.7937 10.2474C19.9785 10.0625 20.0571 9.76285 20.0657 9.72934C20.0997 9.59375 20.0175 9.45618 19.8813 9.42216C19.7457 9.38763 19.6081 9.46984 19.5732 9.60543C19.557 9.6684 19.5017 9.82074 19.4346 9.88818C19.3913 9.93094 19.2461 10.0366 19.1182 10.1294C18.8207 10.3452 18.6012 10.5089 18.4921 10.6427C18.3972 10.7606 18.2519 11.0054 18.1441 11.2481C17.9599 10.8683 18.1036 10.2746 18.5235 9.82724C18.8338 9.4961 19.2385 9.29871 19.6051 9.29871C19.7475 9.29871 19.9511 9.33065 20.1119 9.48152C20.281 9.63991 20.3547 9.88686 20.3206 10.1758Z" fill="#5E2D18"/>
<path opacity="0.1" d="M17.8257 17.3354H16.4039C15.9235 17.3354 15.4934 17.0322 15.3319 16.5802C15.3299 16.5757 15.3285 16.5711 15.3268 16.5665C15.2902 16.4618 15.2705 16.3527 15.266 16.2415L14.6895 13.0561H14.3757C14.2482 13.0561 14.1405 12.9617 14.1249 12.8351L13.5109 8.14745C13.5017 8.07468 13.5236 8.00171 13.5718 7.94686C13.62 7.89202 13.6896 7.86059 13.7622 7.86059H14.169L13.8064 5.43269H13.3682C13.2285 5.43269 13.1143 5.31894 13.1143 5.17878V3.16327C13.1143 3.02311 13.2285 2.90936 13.3682 2.90936H14.5544L15.279 1.09749C15.3182 1.00141 15.4111 0.937935 15.5147 0.937935H16.9366C16.833 0.937935 16.7401 1.00141 16.7009 1.09749L16.5618 1.44575L15.9763 2.90926H14.79C14.6504 2.90926 14.5361 3.02301 14.5361 3.16317V5.17868C14.5361 5.31883 14.6504 5.43258 14.79 5.43258H15.2283L15.591 7.86049H15.1841C15.1115 7.86049 15.042 7.89192 14.9937 7.94676C14.9455 8.00161 14.9236 8.07473 14.9328 8.14735L14.9617 8.3683L15.5091 12.5481L15.5467 12.8349C15.5625 12.9614 15.6701 13.0559 15.7975 13.0559H16.1113L16.6878 16.2414C16.6924 16.3525 16.7121 16.4618 16.7487 16.5664C16.7501 16.5709 16.7518 16.5755 16.7538 16.5801C16.7853 16.6684 16.8274 16.7513 16.8782 16.8274C17.0858 17.1393 17.4393 17.3354 17.8257 17.3354Z" fill="#010101"/>
<path d="M25.0225 2.91036H23.8358L23.1116 1.09849C23.073 1.00241 22.979 0.938934 22.8755 0.938934H15.5148C15.4111 0.938934 15.3182 1.00241 15.2791 1.09849L14.5544 2.91036H13.3682C13.2285 2.91036 13.1143 3.02411 13.1143 3.16427V5.17978C13.1143 5.31993 13.2285 5.43368 13.3682 5.43368H13.8065L14.1691 7.86159H13.7622C13.6896 7.86159 13.6201 7.89302 13.5718 7.94786C13.5236 8.00271 13.5018 8.07583 13.5109 8.14845L14.1249 12.836C14.1406 12.9625 14.2484 13.057 14.3757 13.057H14.6896L15.266 16.2425C15.2705 16.3536 15.2903 16.4629 15.3268 16.5675C15.3284 16.572 15.3299 16.5766 15.332 16.5812C15.4935 17.0331 15.9235 17.3364 16.404 17.3364H21.9864C22.4683 17.3364 22.8983 17.0327 23.0588 16.5812C23.0609 16.5766 23.0624 16.572 23.0644 16.5671C23.0999 16.4624 23.1207 16.3532 23.1248 16.2425L23.7006 13.057H24.0146C24.1426 13.057 24.2502 12.9626 24.267 12.836L24.8804 8.14845C24.8891 8.07568 24.8677 8.00271 24.8194 7.94786C24.7707 7.89302 24.7012 7.86159 24.628 7.86159H24.2217L24.5844 5.43368H25.0226C25.1628 5.43368 25.2765 5.31993 25.2765 5.17978V3.16427C25.2764 3.02411 25.1626 2.91036 25.0225 2.91036ZM15.6873 1.44685H22.7033L23.2892 2.91036H15.1013L15.6873 1.44685ZM22.623 16.1663C22.622 16.1695 22.6216 16.1719 22.6211 16.1749L22.5758 16.4228C22.4834 16.666 22.2483 16.8285 21.9863 16.8285H16.4039C16.1434 16.8285 15.9082 16.6671 15.8153 16.4238L15.7686 16.1709V16.1704L15.2059 13.0569H23.1847L22.623 16.1663ZM24.339 8.36935L23.7915 12.5492H14.5986L14.0517 8.36935H24.339ZM24.0703 5.43379L23.7088 7.86169H14.6823L14.3203 5.43379H24.0703ZM24.7686 4.92597H13.6221V3.41828H24.7686V4.92597Z" fill="#5E2D18"/>
<path d="M2.33597 3.41724H1.23148V4.92504H1.63468H11.9742H12.378V3.41724H11.2735H2.33597Z" fill="#EDEBEB"/>
<path d="M7.21444 9.29886C6.8478 9.29886 6.44338 9.49645 6.1327 9.82739C5.71299 10.2745 5.56918 10.868 5.75351 11.2482C5.86132 11.0056 6.00635 10.7606 6.10157 10.6431C6.21054 10.5088 6.42982 10.3455 6.72765 10.1293C6.85567 10.0365 7.00075 9.93124 7.04376 9.88828C7.11095 9.82104 7.16635 9.6687 7.18255 9.60553C7.21743 9.46994 7.3551 9.38762 7.49089 9.42216C7.62658 9.45648 7.7089 9.59375 7.67497 9.72943C7.66654 9.76295 7.58768 10.0625 7.40284 10.2474C7.33489 10.3153 7.21535 10.403 7.02584 10.5405C6.8448 10.6719 6.57119 10.8701 6.49593 10.963C6.3834 11.1017 6.23522 11.3938 6.16256 11.587C6.23436 11.6072 6.3118 11.6177 6.39498 11.6177C6.76162 11.6177 7.16589 11.42 7.47652 11.0892C7.73104 10.8181 7.89206 10.4938 7.92969 10.1759C7.96407 9.8867 7.89018 9.64006 7.72139 9.48177C7.56061 9.3306 7.35698 9.29886 7.21444 9.29886Z" fill="#EDEBEB"/>
<path d="M1.66107 8.36839L2.20804 12.5482H11.401L11.9483 8.36839H1.66107ZM8.43433 10.2357C8.38354 10.6606 8.17529 11.0873 7.84679 11.4366C7.44201 11.8682 6.89931 12.1257 6.39505 12.1257C6.15277 12.1257 5.92426 12.0652 5.73434 11.9514C5.72774 11.9474 5.7222 11.9427 5.71555 11.9387C5.71448 11.9381 5.71352 11.9377 5.71301 11.9372C5.65156 11.8981 5.59322 11.8545 5.5404 11.8051C4.96602 11.2653 5.06555 10.2223 5.76283 9.47974C6.1676 9.0481 6.7104 8.79079 7.21461 8.79079C7.55022 8.79079 7.84587 8.9019 8.06926 9.11122C8.35815 9.38305 8.48815 9.78214 8.43433 10.2357Z" fill="#F2B632"/>
<path d="M11.3181 7.86057L11.6797 5.43282H1.92972L2.29174 7.86057H11.3181Z" fill="#CEACA4"/>
<path d="M10.3126 1.44589H3.29671L2.71069 2.90941H10.8987L10.3126 1.44589Z" fill="#EDEBEB"/>
<path d="M3.37808 16.1694V16.1699L3.42479 16.4228C3.51772 16.6661 3.75284 16.8276 4.01335 16.8276H9.59578C9.85776 16.8276 10.0929 16.665 10.1853 16.4218L10.2305 16.174C10.2311 16.171 10.2316 16.1685 10.2325 16.1653L10.7942 13.0561H2.81537L3.37808 16.1694Z" fill="#CEACA4"/>
<path d="M8.06917 9.11128C7.84579 8.90211 7.55014 8.79085 7.21453 8.79085C6.71032 8.79085 6.16747 9.04816 5.76275 9.4798C5.06557 10.2223 4.96604 11.2653 5.54032 11.8052C5.59314 11.8546 5.65148 11.8981 5.71293 11.9373C5.71344 11.9378 5.7144 11.9383 5.71547 11.9388C5.72212 11.9427 5.72766 11.9474 5.73426 11.9515C5.92418 12.0651 6.15269 12.1258 6.39497 12.1258C6.89923 12.1258 7.44208 11.8683 7.8467 11.4367C8.17536 11.0872 8.38346 10.6607 8.43424 10.2358C8.48812 9.78215 8.35812 9.38306 8.06917 9.11128ZM7.93003 10.1758C7.89195 10.4937 7.73092 10.8181 7.47651 11.0893C7.16634 11.4205 6.76146 11.6179 6.39492 11.6179C6.3121 11.6179 6.23445 11.6072 6.16285 11.5869C6.23552 11.394 6.3838 11.1015 6.49602 10.9629C6.57113 10.8699 6.84489 10.6719 7.02618 10.5405C7.21554 10.4028 7.33493 10.3154 7.40303 10.2474C7.58782 10.0625 7.66648 9.76285 7.67511 9.72934C7.70914 9.59375 7.62692 9.45618 7.49073 9.42216C7.35514 9.38763 7.21747 9.46984 7.18259 9.60543C7.16639 9.6684 7.11104 9.82074 7.044 9.88818C7.00079 9.93094 6.85556 10.0366 6.72764 10.1294C6.43011 10.3452 6.21064 10.5089 6.10151 10.6427C6.0066 10.7606 5.86136 11.0054 5.7536 11.2481C5.56927 10.8683 5.71298 10.2746 6.13299 9.82724C6.44321 9.4961 6.84799 9.29871 7.21458 9.29871C7.35687 9.29871 7.5605 9.33065 7.72132 9.48152C7.89037 9.63991 7.96406 9.88686 7.93003 10.1758Z" fill="#5E2D18"/>
<path opacity="0.1" d="M5.43517 17.3364H4.01329C3.5329 17.3364 3.10279 17.0331 2.94135 16.5812C2.93932 16.5766 2.93785 16.572 2.93622 16.5675C2.89966 16.4627 2.87991 16.3536 2.87534 16.2425L2.29892 13.057H1.98504C1.85758 13.057 1.74992 12.9626 1.73423 12.836L1.12029 8.1484C1.11109 8.07563 1.13298 8.00266 1.18117 7.94781C1.22941 7.89297 1.29898 7.86154 1.3716 7.86154H1.77841L1.41578 5.43368H0.977539C0.837891 5.43368 0.723633 5.31993 0.723633 5.17978V3.16427C0.723633 3.02411 0.837891 2.91036 0.977539 2.91036H2.16379L2.88844 1.09849C2.92759 1.00241 3.02052 0.938934 3.12411 0.938934H4.54599C4.44239 0.938934 4.34946 1.00241 4.31031 1.09849L4.17122 1.44675L3.58571 2.91026H2.39946C2.25982 2.91026 2.14556 3.02401 2.14556 3.16417V5.17968C2.14556 5.31983 2.25982 5.43358 2.39946 5.43358H2.83771L3.20034 7.86149H2.79353C2.72091 7.86149 2.65134 7.89292 2.6031 7.94776C2.55491 8.00261 2.53302 8.07573 2.54221 8.14835L2.57111 8.3693L3.11853 12.5491L3.15605 12.8359C3.17185 12.9624 3.2795 13.0569 3.40686 13.0569H3.72074L4.29716 16.2424C4.30173 16.3535 4.32148 16.4628 4.35805 16.5674C4.35957 16.5719 4.36114 16.5765 4.36318 16.5811C4.39466 16.6694 4.43681 16.7523 4.48759 16.8284C4.69523 17.1403 5.04867 17.3364 5.43517 17.3364Z" fill="#010101"/>
<path d="M12.6328 2.91036H11.4461L10.7219 1.09849C10.6833 1.00241 10.5894 0.938934 10.4859 0.938934H3.12512C3.02153 0.938934 2.9286 1.00241 2.88944 1.09849L2.16475 2.91036H0.978546C0.838898 2.91036 0.72464 3.02411 0.72464 3.16427V5.17978C0.72464 5.31993 0.838898 5.43368 0.978546 5.43368H1.41679L1.77942 7.86159H1.37261C1.29999 7.86159 1.23042 7.89302 1.18218 7.94786C1.13399 8.00271 1.1121 8.07583 1.12129 8.14845L1.73524 12.836C1.75103 12.9625 1.85869 13.057 1.98605 13.057H2.29992L2.87634 16.2425C2.88091 16.3536 2.90067 16.4629 2.93723 16.5675C2.93875 16.572 2.94033 16.5766 2.94236 16.5812C3.10389 17.0331 3.53391 17.3364 4.0143 17.3364H9.59673C10.0786 17.3364 10.5087 17.0327 10.6691 16.5812C10.6712 16.5766 10.6727 16.572 10.6748 16.5671C10.7103 16.4624 10.731 16.3532 10.7351 16.2425L11.311 13.057H11.6249C11.7529 13.057 11.8606 12.9626 11.8773 12.836L12.4908 8.14845C12.4994 8.07568 12.4781 8.00271 12.4298 7.94786C12.3811 7.89302 12.3115 7.86159 12.2383 7.86159H11.8321L12.1947 5.43368H12.6329C12.7731 5.43368 12.8868 5.31993 12.8868 5.17978V3.16427C12.8867 3.02411 12.773 2.91036 12.6328 2.91036ZM3.29767 1.44685H10.3136L10.8996 2.91036H2.71166L3.29767 1.44685ZM10.2334 16.1663C10.2324 16.1695 10.232 16.1719 10.2314 16.1749L10.1862 16.4228C10.0938 16.666 9.85866 16.8285 9.59668 16.8285H4.01425C3.75374 16.8285 3.51862 16.6671 3.42569 16.4238L3.37898 16.1709V16.1704L2.81632 13.0569H10.7951L10.2334 16.1663ZM11.9493 8.36935L11.4019 12.5492H2.20903L1.66206 8.36935H11.9493ZM11.6807 5.43379L11.3192 7.86169H2.29271L1.93069 5.43379H11.6807ZM12.3789 4.92597H1.23245V3.41828H12.3789V4.92597Z" fill="#5E2D18"/>
<path d="M8.53125 5.14378H7.42676V6.65158H7.82996H18.1695H18.5732V5.14378H17.4688H8.53125Z" fill="#EDEBEB"/>
<path d="M13.4097 11.0254C13.0431 11.0254 12.6387 11.223 12.328 11.554C11.9083 12.0011 11.7645 12.5946 11.9488 12.9748C12.0566 12.7322 12.2016 12.4872 12.2968 12.3697C12.4058 12.2353 12.6251 12.072 12.9229 11.8559C13.0509 11.7631 13.196 11.6579 13.239 11.6149C13.3062 11.5477 13.3616 11.3953 13.3778 11.3321C13.4127 11.1966 13.5504 11.1142 13.6862 11.1488C13.8219 11.1831 13.9042 11.3204 13.8703 11.456C13.8618 11.4896 13.783 11.7891 13.5981 11.974C13.5302 12.0419 13.4106 12.1296 13.2211 12.267C13.0401 12.3984 12.7665 12.5967 12.6912 12.6895C12.5787 12.8283 12.4305 13.1204 12.3578 13.3136C12.4296 13.3338 12.5071 13.3443 12.5903 13.3443C12.9569 13.3443 13.3612 13.1466 13.6718 12.8158C13.9263 12.5447 14.0873 12.2204 14.125 11.9024C14.1594 11.6133 14.0855 11.3666 13.9167 11.2083C13.7559 11.0572 13.5523 11.0254 13.4097 11.0254Z" fill="#EDEBEB"/>
<path d="M7.85632 10.095L8.40329 14.2749H17.5962L18.1436 10.095H7.85632ZM14.6296 11.9623C14.5788 12.3872 14.3706 12.8139 14.042 13.1632C13.6373 13.5948 13.0946 13.8523 12.5903 13.8523C12.348 13.8523 12.1195 13.7918 11.9296 13.678C11.923 13.6739 11.9175 13.6692 11.9108 13.6653C11.9097 13.6647 11.9088 13.6642 11.9083 13.6638C11.8468 13.6247 11.7885 13.5811 11.7357 13.5317C11.1613 12.9918 11.2608 11.9488 11.9581 11.2063C12.3629 10.7747 12.9057 10.5173 13.4099 10.5173C13.7455 10.5173 14.0411 10.6285 14.2645 10.8378C14.5534 11.1096 14.6834 11.5088 14.6296 11.9623Z" fill="#3F3D56"/>
<path d="M17.5134 9.58713L17.875 7.15938H8.125L8.48702 9.58713H17.5134Z" fill="#CEACA4"/>
<path d="M16.5079 3.17247H9.49196L8.90594 4.63598H17.094L16.5079 3.17247Z" fill="#EDEBEB"/>
<path d="M9.57333 17.896V17.8965L9.62005 18.1494C9.71298 18.3927 9.94809 18.5541 10.2086 18.5541H15.791C16.053 18.5541 16.2881 18.3916 16.3805 18.1484L16.4258 17.9005C16.4263 17.8975 16.4269 17.8951 16.4278 17.8919L16.9895 14.7826H9.01062L9.57333 17.896Z" fill="#CEACA4"/>
<path d="M14.2644 10.8379C14.041 10.6287 13.7454 10.5174 13.4098 10.5174C12.9056 10.5174 12.3627 10.7748 11.958 11.2064C11.2608 11.9489 11.1613 12.9919 11.7356 13.5317C11.7884 13.5811 11.8467 13.6247 11.9082 13.6639C11.9087 13.6644 11.9097 13.6649 11.9107 13.6653C11.9174 13.6693 11.9229 13.674 11.9295 13.678C12.1194 13.7917 12.3479 13.8523 12.5902 13.8523C13.0945 13.8523 13.6373 13.5949 14.0419 13.1632C14.3706 12.8138 14.5787 12.3872 14.6295 11.9623C14.6834 11.5088 14.5534 11.1096 14.2644 10.8379ZM14.1253 11.9023C14.0872 12.2203 13.9262 12.5447 13.6718 12.8159C13.3616 13.147 12.9567 13.3445 12.5902 13.3445C12.5073 13.3445 12.4297 13.3338 12.3581 13.3135C12.4308 13.1206 12.579 12.8281 12.6913 12.6894C12.7664 12.5965 13.0401 12.3985 13.2214 12.267C13.4108 12.1294 13.5302 12.042 13.5983 11.974C13.7831 11.7891 13.8617 11.4895 13.8704 11.4559C13.9044 11.3204 13.8222 11.1828 13.686 11.1488C13.5504 11.1142 13.4127 11.1965 13.3778 11.332C13.3616 11.395 13.3063 11.5474 13.2393 11.6148C13.196 11.6576 13.0508 11.7632 12.9229 11.856C12.6254 12.0718 12.4059 12.2355 12.2968 12.3694C12.2018 12.4872 12.0566 12.732 11.9489 12.9747C11.7645 12.5949 11.9082 12.0012 12.3282 11.5539C12.6385 11.2227 13.0432 11.0253 13.4098 11.0253C13.5521 11.0253 13.7557 11.0573 13.9166 11.2081C14.0856 11.3665 14.1593 11.6134 14.1253 11.9023Z" fill="#5E2D18"/>
<path opacity="0.1" d="M11.6304 19.062H10.2085C9.72815 19.062 9.29804 18.7587 9.1366 18.3068C9.13457 18.3022 9.1331 18.2977 9.13147 18.2931C9.09491 18.1883 9.07516 18.0792 9.07059 17.9681L8.49417 14.7826H8.18029C8.05283 14.7826 7.94517 14.6882 7.92948 14.5616L7.31554 9.87401C7.30635 9.80124 7.32823 9.72826 7.37642 9.67342C7.42467 9.61858 7.49424 9.58714 7.56685 9.58714H7.97366L7.61103 7.15924H7.17279C7.03314 7.15924 6.91888 7.04549 6.91888 6.90533V4.88983C6.91888 4.74967 7.03314 4.63592 7.17279 4.63592H8.35899L9.08369 2.82404C9.12284 2.72797 9.21577 2.66449 9.31937 2.66449H10.7412C10.6376 2.66449 10.5447 2.72797 10.5056 2.82404L10.3665 3.1723L9.78097 4.63582H8.59472C8.45507 4.63582 8.34081 4.74957 8.34081 4.88972V6.90523C8.34081 7.04539 8.45507 7.15914 8.59472 7.15914H9.03296L9.39559 9.58704H8.98878C8.91616 9.58704 8.84659 9.61847 8.79835 9.67332C8.75016 9.72816 8.72827 9.80129 8.73746 9.8739L8.76636 10.0948L9.31378 14.2747L9.35131 14.5615C9.3671 14.6879 9.47476 14.7825 9.60211 14.7825H9.91599L10.4924 17.9679C10.497 18.0791 10.5167 18.1883 10.5533 18.2929C10.5548 18.2975 10.5564 18.3021 10.5584 18.3066C10.5899 18.395 10.6321 18.4778 10.6828 18.554C10.8905 18.8659 11.2439 19.062 11.6304 19.062Z" fill="#010101"/>
<path d="M18.8281 4.63693H17.6414L16.9172 2.82505C16.8786 2.72897 16.7847 2.6655 16.6811 2.6655H9.32037C9.21678 2.6655 9.12385 2.72897 9.0847 2.82505L8.36 4.63693H7.1738C7.03415 4.63693 6.91989 4.75068 6.91989 4.89083V6.90634C6.91989 7.0465 7.03415 7.16025 7.1738 7.16025H7.61204L7.97467 9.58815H7.56786C7.49524 9.58815 7.42567 9.61958 7.37743 9.67443C7.32924 9.72927 7.30735 9.8024 7.31654 9.87501L7.93049 14.5626C7.94628 14.689 8.05394 14.7836 8.1813 14.7836H8.49518L9.07159 17.969C9.07616 18.0802 9.09592 18.1894 9.13248 18.294C9.134 18.2986 9.13558 18.3032 9.13761 18.3077C9.29915 18.7597 9.72916 19.0629 10.2096 19.0629H15.792C16.2738 19.0629 16.704 18.7593 16.8644 18.3077C16.8665 18.3032 16.8679 18.2986 16.87 18.2937C16.9055 18.1889 16.9262 18.0797 16.9303 17.969L17.5062 14.7836H17.8201C17.9482 14.7836 18.0558 14.6892 18.0726 14.5626L18.686 9.87501C18.6946 9.80224 18.6733 9.72927 18.625 9.67443C18.5763 9.61958 18.5068 9.58815 18.4336 9.58815H18.0273L18.39 7.16025H18.8281C18.9684 7.16025 19.0821 7.0465 19.0821 6.90634V4.89083C19.082 4.75068 18.9683 4.63693 18.8281 4.63693ZM9.49293 3.17341H16.5089L17.0948 4.63693H8.90691L9.49293 3.17341ZM16.4287 17.8929C16.4276 17.8961 16.4272 17.8985 16.4267 17.9015L16.3814 18.1494C16.289 18.3926 16.0539 18.5551 15.7919 18.5551H10.2095C9.94899 18.5551 9.71388 18.3936 9.62095 18.1503L9.57423 17.8974V17.8969L9.01157 14.7835H16.9904L16.4287 17.8929ZM18.1446 10.096L17.5972 14.2758H8.40428L7.85731 10.096H18.1446ZM17.8759 7.16035L17.5144 9.58825H8.48797L8.12595 7.16035H17.8759ZM18.5742 6.65254H7.4277V5.14484H18.5742V6.65254Z" fill="#5E2D18"/>
</svg>
