<svg width="14" height="18" viewBox="0 0 14 18" fill="none" xmlns="http://www.w3.org/2000/svg">
<path d="M2.53125 3.28051H1.42676V4.78826H1.82996H12.1695H12.5732V3.28051H11.4688H2.53125Z" fill="#EDEBEB"/>
<path d="M7.40969 9.16209C7.04305 9.16209 6.63863 9.35968 6.32795 9.69062C5.90824 10.1377 5.76443 10.7313 5.94876 11.1114C6.05657 10.8688 6.2016 10.6238 6.29682 10.5063C6.40575 10.372 6.62502 10.2087 6.9229 9.99256C7.05092 9.89974 7.196 9.79447 7.23897 9.75156C7.3062 9.68427 7.36155 9.53193 7.3778 9.46875C7.41264 9.33317 7.55036 9.25085 7.68615 9.28538C7.82183 9.31971 7.90415 9.45697 7.87023 9.59266C7.8618 9.62618 7.78294 9.92568 7.59809 10.1106C7.53015 10.1785 7.41056 10.2662 7.22109 10.4036C7.04 10.5351 6.76645 10.7334 6.69119 10.8262C6.57866 10.9649 6.43048 11.257 6.35781 11.4502C6.42961 11.4705 6.50705 11.481 6.59023 11.481C6.95688 11.481 7.36115 11.2833 7.67177 10.9524C7.92629 10.6814 8.08727 10.357 8.12495 10.0391C8.15928 9.74993 8.08539 9.50329 7.91664 9.345C7.75587 9.19383 7.55224 9.16209 7.40969 9.16209Z" fill="#EDEBEB"/>
<path d="M1.85632 8.23167L2.40329 12.4115H11.5962L12.1436 8.23167H1.85632ZM8.62958 10.099C8.5788 10.5239 8.37059 10.9506 8.04204 11.2999C7.63726 11.7315 7.09456 11.989 6.5903 11.989C6.34803 11.989 6.11951 11.9285 5.92959 11.8147C5.92299 11.8106 5.91745 11.806 5.9108 11.802C5.90978 11.8014 5.90877 11.8009 5.90826 11.8005C5.84682 11.7614 5.78847 11.7178 5.73566 11.6684C5.16127 11.1286 5.2608 10.0856 5.95808 9.34312C6.3628 8.91148 6.90566 8.65412 7.40986 8.65412C7.74548 8.65412 8.04107 8.76528 8.26451 8.97455C8.55341 9.24628 8.6834 9.64542 8.62958 10.099Z" fill="#F2B632"/>
<path d="M11.5134 7.72388L11.875 5.29607H2.125L2.48702 7.72388H11.5134Z" fill="#CEACA4"/>
<path d="M10.5079 1.30917H3.49196L2.90594 2.77269H11.094L10.5079 1.30917Z" fill="#EDEBEB"/>
<path d="M3.57333 16.0326V16.0331L3.62005 16.286C3.71297 16.5293 3.94809 16.6908 4.2086 16.6908H9.79098C10.053 16.6908 10.2881 16.5283 10.3805 16.2851L10.4257 16.0372C10.4263 16.0342 10.4268 16.0317 10.4277 16.0286L10.9894 12.9193H3.01062L3.57333 16.0326Z" fill="#CEACA4"/>
<path d="M8.26443 8.97456C8.041 8.76539 7.7454 8.65413 7.40979 8.65413C6.90558 8.65413 6.36268 8.91149 5.958 9.34313C5.26078 10.0856 5.16125 11.1286 5.73558 11.6685C5.78839 11.7178 5.84674 11.7614 5.90819 11.8005C5.9087 11.801 5.90971 11.8016 5.91073 11.802C5.91738 11.806 5.92291 11.8106 5.92952 11.8147C6.11944 11.9284 6.34795 11.989 6.59023 11.989C7.09449 11.989 7.63734 11.7315 8.04196 11.2999C8.37057 10.9505 8.57872 10.5239 8.6295 10.099C8.68338 9.64543 8.55338 9.24629 8.26443 8.97456ZM8.12529 10.039C8.08721 10.3569 7.92623 10.6814 7.67182 10.9525C7.3616 11.2837 6.95677 11.4812 6.59023 11.4812C6.50741 11.4812 6.42976 11.4705 6.35816 11.4501C6.43078 11.2572 6.57906 10.9647 6.69128 10.8261C6.76644 10.7332 7.04015 10.5352 7.22149 10.4036C7.41085 10.266 7.53024 10.1786 7.59829 10.1106C7.78308 9.92569 7.86174 9.62608 7.87042 9.59257C7.90445 9.45698 7.82223 9.31941 7.68604 9.28539C7.55045 9.25086 7.41278 9.33308 7.3779 9.46866C7.36165 9.53163 7.30629 9.68397 7.23926 9.75146C7.1961 9.79417 7.05081 9.89979 6.9229 9.99267C6.62532 10.2085 6.40589 10.3721 6.29676 10.506C6.2018 10.6238 6.05657 10.8687 5.94886 11.1113C5.76453 10.7315 5.90824 10.1379 6.32825 9.69052C6.63847 9.35938 7.04325 9.16199 7.40984 9.16199C7.55208 9.16199 7.75571 9.19393 7.91658 9.34481C8.08563 9.50319 8.15932 9.75009 8.12529 10.039Z" fill="#5E2D18"/>
<path opacity="0.1" d="M5.63042 17.1986H4.20854C3.72815 17.1986 3.29804 16.8954 3.13655 16.4435C3.13452 16.4389 3.13305 16.4343 3.13147 16.4297C3.09491 16.325 3.07511 16.2159 3.07054 16.1047L2.49417 12.9193H2.18029C2.05283 12.9193 1.94517 12.8249 1.92948 12.6983L1.31554 8.01073C1.30635 7.93801 1.32823 7.86498 1.37642 7.81014C1.42467 7.7553 1.49424 7.72386 1.56685 7.72386H1.97366L1.61103 5.29596H1.17279C1.03314 5.29596 0.918884 5.18221 0.918884 5.04205V3.02655C0.918884 2.88639 1.03314 2.77264 1.17279 2.77264H2.35904L3.08369 0.960766C3.12284 0.864739 3.21577 0.801262 3.31937 0.801262H4.74124C4.63765 0.801262 4.54472 0.864739 4.50556 0.960766L4.36647 1.30907L3.78097 2.77259H2.59472C2.45507 2.77259 2.34081 2.88634 2.34081 3.0265V5.042C2.34081 5.18216 2.45507 5.29591 2.59472 5.29591H3.03296L3.39559 7.72381H2.98878C2.91616 7.72381 2.84659 7.75524 2.79835 7.81009C2.75016 7.86493 2.72827 7.93806 2.73746 8.01067L2.76636 8.23162L3.31378 12.4114L3.35136 12.6983C3.3671 12.8247 3.47476 12.9192 3.60217 12.9192H3.91605L4.49241 16.1047C4.49698 16.2159 4.51679 16.3251 4.55335 16.4297C4.55487 16.4343 4.5564 16.4388 4.55843 16.4434C4.58991 16.5318 4.63206 16.6146 4.68284 16.6908C4.89049 17.0026 5.24392 17.1986 5.63042 17.1986Z" fill="#010101"/>
<path d="M12.8281 2.77365H11.6414L10.9172 0.961773C10.8787 0.865745 10.7847 0.802269 10.6811 0.802269H3.32037C3.21678 0.802269 3.12385 0.865745 3.0847 0.961773L2.36005 2.77365H1.1738C1.03415 2.77365 0.919891 2.8874 0.919891 3.02755V5.04306C0.919891 5.18322 1.03415 5.29697 1.1738 5.29697H1.61204L1.97467 7.72487H1.56786C1.49524 7.72487 1.42567 7.7563 1.37743 7.81115C1.32924 7.86599 1.30735 7.93912 1.31654 8.01173L1.93049 12.6993C1.94623 12.8258 2.05389 12.9203 2.1813 12.9203H2.49518L3.07154 16.1058C3.07611 16.2169 3.09592 16.3261 3.13248 16.4308C3.134 16.4353 3.13553 16.4399 3.13756 16.4445C3.29909 16.8964 3.72916 17.1996 4.20955 17.1996H9.79193C10.2738 17.1996 10.7039 16.896 10.8644 16.4445C10.8665 16.4399 10.8679 16.4353 10.87 16.4304C10.9055 16.3256 10.9262 16.2165 10.9303 16.1058L11.5062 12.9203H11.8201C11.9481 12.9203 12.0558 12.8259 12.0726 12.6993L12.686 8.01173C12.6946 7.93902 12.6733 7.86599 12.625 7.81115C12.5763 7.7563 12.5067 7.72487 12.4336 7.72487H12.0273L12.39 5.29697H12.8281C12.9683 5.29697 13.0821 5.18322 13.0821 5.04306V3.02755C13.082 2.88735 12.9682 2.77365 12.8281 2.77365ZM3.49293 1.31013H10.5089L11.0949 2.77365H2.90691L3.49293 1.31013ZM10.4287 16.0295C10.4277 16.0327 10.4272 16.0352 10.4267 16.0382L10.3815 16.286C10.289 16.5292 10.054 16.6918 9.79193 16.6918H4.2095C3.94899 16.6918 3.71388 16.5303 3.62095 16.287L3.57423 16.0341V16.0336L3.01157 12.9201H10.9904L10.4287 16.0295ZM12.1446 8.23263L11.5972 12.4124H2.40428L1.85731 8.23263H12.1446ZM11.8759 5.29702L11.5144 7.72492H2.48797L2.12595 5.29702H11.8759ZM12.5742 4.78921H1.4277V3.28151H12.5742V4.78921Z" fill="#5E2D18"/>
</svg>
