<svg width="18" height="18" viewBox="0 0 18 18" fill="none" xmlns="http://www.w3.org/2000/svg">
<path d="M18 1.38477H0V18.0002H18V1.38477Z" fill="#ECF0F1"/>
<path d="M18 1.38477H0V4.154H18V1.38477Z" fill="#E74C3C"/>
<path fill-rule="evenodd" clip-rule="evenodd" d="M2.0769 11.7692H3.46152V10.3846H2.0769V11.7692ZM2.0769 9.69225H3.46152V8.30764H2.0769V9.69225ZM6.23075 13.8461H7.61537V12.4615H6.23075V13.8461ZM4.15383 11.7692H5.53844V10.3846H4.15383V11.7692ZM4.15383 9.69225H5.53844V8.30764H4.15383V9.69225ZM8.30767 13.8461H9.69229V12.4615H8.30767V13.8461ZM6.23075 11.7692H7.61537V10.3846H6.23075V11.7692ZM6.23075 9.69225H7.61537V8.30764H6.23075V9.69225ZM10.3846 13.8461H11.7692V12.4615H10.3846V13.8461ZM8.30767 11.7692H9.69229V10.3846H8.30767V11.7692ZM8.30767 9.69225H9.69229V8.30764H8.30767V9.69225ZM10.3846 9.69225H11.7692V8.30764H10.3846V9.69225ZM10.3846 7.61533H11.7692V6.23071H10.3846V7.61533ZM12.4615 11.7692H13.8461V10.3846H12.4615V11.7692ZM12.4615 9.69225H13.8461V8.30764H12.4615V9.69225ZM12.4615 7.61533H13.8461V6.23071H12.4615V7.61533ZM14.5384 11.7692H15.9231V10.3846H14.5384V11.7692ZM14.5384 9.69225H15.9231V8.30764H14.5384V9.69225ZM14.5384 6.23071V7.61533H15.9231V6.23071H14.5384ZM4.15383 13.8461H5.53844V12.4615H4.15383V13.8461ZM2.0769 13.8461H3.46152V12.4615H2.0769V13.8461ZM12.4615 13.8461H13.8461V12.4615H12.4615V13.8461ZM14.5384 13.8461H15.9231V12.4615H14.5384V13.8461ZM6.23075 15.923H7.61537V14.5384H6.23075V15.923ZM8.30767 15.923H9.69229V14.5384H8.30767V15.923ZM2.0769 15.923H3.46152V14.5384H2.0769V15.923ZM4.15383 15.923H5.53844V14.5384H4.15383V15.923ZM10.3846 15.923H11.7692V14.5384H10.3846V15.923Z" fill="#34495E"/>
<path d="M11.7693 10.3848H10.3846V11.7694H11.7693V10.3848Z" fill="#E74C3C"/>
<path fill-rule="evenodd" clip-rule="evenodd" d="M2.0769 2.76923H3.46152V0H2.0769V2.76923ZM14.5384 0V2.76923H15.9231V0H14.5384Z" fill="#2C3E50"/>
</svg>
