<svg width="104" height="21" viewBox="0 0 104 21" fill="none" xmlns="http://www.w3.org/2000/svg">
<path d="M4.76 18.16C3.50667 18.16 2.5 17.7667 1.74 16.98C0.993333 16.1933 0.62 15.1133 0.62 13.74V5.82C0.62 4.11333 0.96 2.82667 1.64 1.96C2.32 1.09333 3.38667 0.659999 4.84 0.659999C6.10667 0.659999 7.12667 1.00667 7.9 1.7C8.67333 2.39333 9.06 3.39333 9.06 4.7V7.66H5.64V5.12C5.64 4.62667 5.58 4.28667 5.46 4.1C5.34 3.91333 5.13333 3.82 4.84 3.82C4.53333 3.82 4.32 3.92667 4.2 4.14C4.09333 4.35333 4.04 4.66667 4.04 5.08V13.7C4.04 14.1533 4.10667 14.4867 4.24 14.7C4.37333 14.9 4.57333 15 4.84 15C5.37333 15 5.64 14.5667 5.64 13.7V10.6H9.1V13.84C9.1 16.72 7.65333 18.16 4.76 18.16ZM16.4327 18.16C13.5127 18.16 12.0527 16.6467 12.0527 13.62V7.74C12.0527 6.35333 12.4393 5.25333 13.2127 4.44C13.9993 3.61333 15.0727 3.2 16.4327 3.2C17.7927 3.2 18.8593 3.61333 19.6327 4.44C20.4193 5.25333 20.8127 6.35333 20.8127 7.74V13.62C20.8127 16.6467 19.3527 18.16 16.4327 18.16ZM16.4327 15.46C16.7127 15.46 16.9193 15.36 17.0527 15.16C17.186 14.96 17.2527 14.6867 17.2527 14.34V7.18C17.2527 6.32667 16.9793 5.9 16.4327 5.9C15.886 5.9 15.6127 6.32667 15.6127 7.18V14.34C15.6127 14.6867 15.6793 14.96 15.8127 15.16C15.946 15.36 16.1527 15.46 16.4327 15.46ZM26.9941 18.16C26.1407 18.16 25.4941 17.96 25.0541 17.56C24.6274 17.1467 24.3407 16.6067 24.1941 15.94C24.0607 15.26 23.9941 14.3933 23.9941 13.34L24.0341 6.74C24.0341 5.7 24.2941 4.85333 24.8141 4.2C25.3474 3.53333 26.0941 3.2 27.0541 3.2C28.0007 3.2 28.7074 3.51333 29.1741 4.14V0.72H32.6741V18H29.1741V16.44C28.9741 17.0133 28.7007 17.4467 28.3541 17.74C28.0207 18.02 27.5674 18.16 26.9941 18.16ZM28.3341 15.42C28.6807 15.42 28.9074 15.2533 29.0141 14.92C29.1207 14.5733 29.1741 14.1133 29.1741 13.54V12.92V7.42C29.1741 6.99333 29.1141 6.63333 28.9941 6.34C28.8741 6.04667 28.6607 5.9 28.3541 5.9C28.0074 5.9 27.7741 6.04 27.6541 6.32C27.5474 6.58667 27.4941 6.95333 27.4941 7.42V13.58C27.4941 14.8067 27.7741 15.42 28.3341 15.42ZM51.8606 18.16C48.9673 18.16 47.5206 16.6933 47.5206 13.76L47.5406 12.6H51.0406L51.0606 14.32C51.0606 14.6667 51.1273 14.9333 51.2606 15.12C51.394 15.2933 51.614 15.38 51.9206 15.38C52.3873 15.38 52.6206 15 52.6206 14.24C52.6206 13.68 52.5073 13.24 52.2806 12.92C52.0673 12.6 51.7206 12.26 51.2406 11.9L49.3806 10.46C48.7406 9.96667 48.2806 9.46 48.0006 8.94C47.7206 8.40667 47.5806 7.66 47.5806 6.7C47.5806 5.95333 47.774 5.32 48.1606 4.8C48.5606 4.26667 49.0873 3.86667 49.7406 3.6C50.394 3.33333 51.1206 3.2 51.9206 3.2C54.7606 3.2 56.1806 4.61333 56.1806 7.44V7.72H52.5606V7.16C52.5606 6.81333 52.5006 6.52 52.3806 6.28C52.274 6.02667 52.0873 5.9 51.8206 5.9C51.5806 5.9 51.394 5.97333 51.2606 6.12C51.1406 6.25333 51.0806 6.44 51.0806 6.68C51.0806 7.21333 51.2873 7.62667 51.7006 7.92L53.8606 9.5C54.634 10.0733 55.2273 10.7 55.6406 11.38C56.054 12.0467 56.2606 12.8933 56.2606 13.92C56.2606 15.28 55.874 16.3267 55.1006 17.06C54.3273 17.7933 53.2473 18.16 51.8606 18.16ZM63.7328 18.16C62.1328 18.16 60.9795 17.7533 60.2728 16.94C59.5661 16.1267 59.2128 14.88 59.2128 13.2V8.68C59.2128 7.41333 59.3461 6.38667 59.6128 5.6C59.8928 4.8 60.3528 4.2 60.9928 3.8C61.6461 3.4 62.5461 3.2 63.6928 3.2C64.9461 3.2 65.9661 3.52667 66.7528 4.18C67.5395 4.83333 67.9328 5.74667 67.9328 6.92V9.16H64.3728V7.1C64.3728 6.71333 64.3195 6.42 64.2128 6.22C64.1061 6.00667 63.8995 5.9 63.5928 5.9C63.0195 5.9 62.7328 6.30667 62.7328 7.12V14.22C62.7328 14.5533 62.7995 14.84 62.9328 15.08C63.0795 15.3067 63.2928 15.42 63.5728 15.42C63.8528 15.42 64.0595 15.3067 64.1928 15.08C64.3395 14.8533 64.4061 14.56 64.3928 14.2L64.3728 11.74H67.9328V14.3C67.9328 15.5 67.5395 16.4467 66.7528 17.14C65.9795 17.82 64.9728 18.16 63.7328 18.16ZM73.817 18.16C72.6837 18.16 71.9037 17.7867 71.477 17.04C71.0637 16.28 70.857 15.2 70.857 13.8C70.857 12.6533 71.0037 11.7733 71.297 11.16C71.6037 10.5467 72.0237 10.1 72.557 9.82C73.0904 9.52667 73.9037 9.20667 74.997 8.86L75.957 8.54V8.5V7.04C75.957 6.65333 75.877 6.36 75.717 6.16C75.5704 5.94667 75.3904 5.84 75.177 5.84C74.9904 5.84 74.8237 5.92667 74.677 6.1C74.5437 6.27333 74.477 6.50667 74.477 6.8V7.68H71.077V7.2C71.077 5.76 71.4104 4.73333 72.077 4.12C72.757 3.50667 73.857 3.2 75.377 3.2C76.5904 3.2 77.577 3.52 78.337 4.16C79.097 4.78667 79.477 5.68 79.477 6.84V18H75.997V16.26C75.8237 16.86 75.5437 17.3267 75.157 17.66C74.7837 17.9933 74.337 18.16 73.817 18.16ZM75.197 15.44C75.4637 15.44 75.6504 15.3333 75.757 15.12C75.877 14.8933 75.937 14.62 75.937 14.3V10.22C75.417 10.42 75.0304 10.6733 74.777 10.98C74.537 11.2867 74.417 11.7133 74.417 12.26V14.14C74.417 15.0067 74.677 15.44 75.197 15.44ZM82.825 3.36H86.385V4.14C86.8917 3.51333 87.5917 3.2 88.485 3.2C89.6183 3.2 90.405 3.58 90.845 4.34C91.2983 5.1 91.525 6.15333 91.525 7.5V12.92C91.525 14.0667 91.4583 15.0067 91.325 15.74C91.1917 16.46 90.8983 17.0467 90.445 17.5C89.9917 17.94 89.305 18.16 88.385 18.16C87.505 18.16 86.8383 17.9133 86.385 17.42V20.92H82.825V3.36ZM87.225 15.44C87.545 15.44 87.7517 15.2933 87.845 15C87.9383 14.7067 87.985 14.28 87.985 13.72V7.5C87.985 6.99333 87.9383 6.60667 87.845 6.34C87.7517 6.07333 87.5383 5.94 87.205 5.94C86.6583 5.94 86.385 6.44667 86.385 7.46V13.88C86.385 14.3733 86.4383 14.76 86.545 15.04C86.665 15.3067 86.8917 15.44 87.225 15.44ZM98.925 18.16C97.4183 18.16 96.3383 17.7467 95.685 16.92C95.0317 16.0933 94.705 14.86 94.705 13.22V7.34C94.705 5.99333 95.0917 4.96667 95.865 4.26C96.6383 3.55333 97.7183 3.2 99.105 3.2C101.918 3.2 103.325 4.58 103.325 7.34V8.4C103.325 9.46667 103.312 10.3333 103.285 11H98.205V13.84C98.205 14.3467 98.2583 14.7467 98.365 15.04C98.4717 15.32 98.6983 15.46 99.045 15.46C99.3117 15.46 99.4983 15.38 99.605 15.22C99.725 15.06 99.7917 14.88 99.805 14.68C99.8317 14.4667 99.845 14.16 99.845 13.76V12.34H103.325V13.18C103.325 14.8867 102.992 16.1467 102.325 16.96C101.672 17.76 100.538 18.16 98.925 18.16ZM99.845 9.26V7.38C99.845 6.32667 99.585 5.8 99.065 5.8C98.4783 5.8 98.185 6.32667 98.185 7.38V9.26H99.845Z" fill="#3F3D56"/>
<path d="M40.175 18.16C38.6683 18.16 37.5883 17.7467 36.935 16.92C36.2817 16.0933 35.955 14.86 35.955 13.22V7.34C35.955 5.99333 36.3417 4.96667 37.115 4.26C37.8883 3.55333 38.9683 3.2 40.355 3.2C43.1683 3.2 44.575 4.58 44.575 7.34V8.4C44.575 9.46667 44.5617 10.3333 44.535 11H39.455V13.84C39.455 14.3467 39.5083 14.7467 39.615 15.04C39.7217 15.32 39.9483 15.46 40.295 15.46C40.5617 15.46 40.7483 15.38 40.855 15.22C40.975 15.06 41.0417 14.88 41.055 14.68C41.0817 14.4667 41.095 14.16 41.095 13.76V12.34H44.575V13.18C44.575 14.8867 44.2417 16.1467 43.575 16.96C42.9217 17.76 41.7883 18.16 40.175 18.16ZM41.095 9.26V7.38C41.095 6.32667 40.835 5.8 40.315 5.8C39.7283 5.8 39.435 6.32667 39.435 7.38V9.26H41.095Z" fill="#32C4F2"/>
</svg>
